<mxfile host="app.diagrams.net" modified="2024-03-06T00:17:02.878Z" agent="Mozilla/5.0 (Windows NT 10.0; Win64; x64) AppleWebKit/537.36 (KHTML, like Gecko) Chrome/122.0.0.0 Safari/537.36" etag="6Uubeb2RzGPDFu2zP8sE" version="24.0.1" type="github">
  <diagram name="第 1 页" id="k3tQ1mpXQh30R_kolZII">
    <mxGraphModel dx="3033" dy="1135" grid="1" gridSize="10" guides="1" tooltips="1" connect="1" arrows="1" fold="1" page="1" pageScale="1" pageWidth="827" pageHeight="1169" math="0" shadow="0">
      <root>
        <mxCell id="0" />
        <mxCell id="1" parent="0" />
        <mxCell id="6TmgzU4dqJjTE7Q41w9K-17" style="edgeStyle=orthogonalEdgeStyle;rounded=0;orthogonalLoop=1;jettySize=auto;html=1;entryX=0;entryY=0.5;entryDx=0;entryDy=0;" edge="1" parent="1" source="6TmgzU4dqJjTE7Q41w9K-9" target="6TmgzU4dqJjTE7Q41w9K-15">
          <mxGeometry relative="1" as="geometry" />
        </mxCell>
        <mxCell id="6TmgzU4dqJjTE7Q41w9K-9" value="" style="shape=image;verticalLabelPosition=bottom;verticalAlign=top;imageAspect=0;aspect=fixed;image=data:image/webp,UklGRgwqAABXRUJQVlA4TP8pAAAvJYFKAFWH2rZtJHP/sXN/FVwVEROQ3xHF8VHwQuPbP/Oo59Ofut//X27Hbv7L4NBmsoeZmZmZeQzb7G1mGKZj3GZme8YM2xfP86y1nrWetZeDteQyhJNdcPFpfFem4E4tnTJDOLF0wAWfMjNzcKQDToRl3KGrMte1jrZ66LLMNKPwKE848chFl5ks+WKXeUant8wMAUvhZEnlelQFdslSnzIeuCpzG3DjyyMFyugyTc+Ek11uD4xOcOQy+2iVMXCofEu7zA37wBrJUphGrsLsE2bmq0qj3qbckQJW3KPwKrfhfI7Isg7LUpiZOb7YijyKGK5olfnArg6MdCB8VZeCLlpzPC5jmLHs5nfhU+b+Cke7YgbLatCVXSaHOZkwJ7QAACDbWOls2zr7bmfOtr2zZ/O63jO+TlNn27ZtG2nnFanThMKt7WkbyZIsltwUA22axHac5Oz+9tIyMzMzlufMxMzU/wmQmm3b6zZj9t5777333nvvbUmjen5oc6M6QEWaR9xDOEUodYmMcHioL09gniU6zplDQ2QB09QlgoLPELlCc4kaaZNULpSGsoSGEE8TP0tkDa0glAm8R3oRPyOknBHENUKWkDY42F5CE3iKVByuYGWHzoV+noo7zzJeA2IAgGWk/Yc46z+2U5srmWnbNvYtabv+T0BJwHgqAy6BGjlh6spSC7J2EtIOYlKPQpKmTGfSSRzoaD7WIDVLZufQwggs9VACALm4JBlLR6aMJ2POhgKc/kRsJ42J3Z1di8cDS2th4w1s/fvLvMzLtHY3LU2Ujf5+MPXjfkUXg2GccZmLCNRJMqbOCrOiKCx1UASBWWAWm3Y4AWMxMMa1uDC2suS2fr19SO6YFDj9tlXc6evWISqxfdlZWXOLS8N+hezRaU4U+jAzhxdCUakANwDsY0763qgnK0spp6+Hu7avOkdsQFXthNvafagtnlknN+LJxgUa5eciN8DQ9bJy2OykaXDuuk/9Q4eQlPLtEJ1YPLXsedczkWbvUZdrloXDpiXPbWUWNs7YMTaqQfmv4RgfHpyt7HxikpOBI5rpajc4GzTtW9S2dsaO8RFVV8eE0MYDOonZs1Km77EkauhiRVAYl34wEL9jZSEcYyKqzg9vZSYG5HMiQ8OCKNK5zLm4dEKqbXlh7BCWUXV3iEgtrx6OQVmehxtg6FafIRF9PzjGs/UzalD1r/FADtxNXOigOAB0qdOalTq10Jz+e6qZl9LX+cnk5MWiiKk75YLJuJBjfX/gmBhSTf2g1sZqFKZ7iLrSEw7BWdrY0UelmuuU5Nu6ooHRZSqWMutCbgDIAvNBWKvLrEE12u59HYxnVbmhDvS1BmBtbF/0VNPtA4rgyLqy7pOeLfpDPPu3FdV8+4AyOK+XjGnpOjm5dEh4aefXUSG0f18NyOtkZHPdpiCCxqY5Ng6khiBQWy8wPMOtoMt8rK9t9dR6nlQYnXC+tbmYlGwXQ4Hu4gaAxPS9vvQmjtiACqUT1u/z6jAyNPoMOks2mDmh669KhdMRF9iKO0vqKoUQNBbk2voYVEjt39YjMJYVdBQX2tDq5kENQaFWjwbOtElDnaTjAPyOQ3hKhfVSgkvPXVlKF2k2E+XUgwqtjRecELLdUEMH+Vr2krZjXCQ4jl9CO8WZK1vpIOOQXBtfQIXX7m09CsXTPTJxuIXy/I7UapCYYHrnJNGNwlWzOaXEN6ppXNP+E32+HtVC9zgp09I1PsP0p3MbT0jVefwXUVq1pjhvDwBF+Y2kes1Q4QFP9B1MdOoWR4GOkZeLHXi9k+OpX6w/yqdwCs9kuOBAgdE+hNllO7hhjEXE+lQaTSrNJr9IB7hq1ZvlqbWNuJsTJjpGRNrIwsCi/J5d1MfFESGURa7AfJcqHNHC5+qRAkIaHLcd822UTrUBXJ7mwXE+P9TKUoSBxrrF+QxHWTtEJvwsH+NhcURAnLsl11DhYRH+HpkV28GifEopHflzWEC4x78dMSDk6c6GYHn5EKxTpGULK4U55bUfrG8qzmsAWPhc1Q92yzG9c1qCx0CUJzlllo32qACiPCl4on2dHydhWjpFeGhsaSp56TtpayrG15cE+vQqzSJiHdKoNwPHBhyRDHJgWpeEhY72IQJSa9QDJPg8WduTWaETXeIljcB27T5XfAT7ug1pmRXjM5BWrf3j6VVa5JDphgkN2MomuFUCE/rHbIeVV7xDPvGuDU9dhoXdfegQ6TkiuNTcCbflo2x4o3ylDMpNm36/bG8WhQT7NhwJb1bAeC9jNr/5L1ZYeVKfmKcaTvKztCypQ8zD2LPQP6C8+s1qm44QGNKy8W6XwATPY474+iUwiU/MRiM/K4CwJhlP9DfGoR7qELORT63dTH5Ync1yYFbbjI1uFpjFLuV4ds8KP4yvxhMTFlk2Tf4zHMEFLuYLXCh4vO4Uou0/UDrLlpmfCrTXyLCzTzWY2i05IkR/mHPMYZUdESIa5hydivL1WNvZii/7z2Vw0HNO1bw7p1gzdVCHv28cf7/l0eGf61F1sjC/LEnZa3OpatJBP5cAei2VHzH7E7IvRQ3GeBetjA/KcZ3PCh+UY9SPUWGBHpfOl2N8ZAO7s2XtOqdpvp1TrZk6meNfN06/3fLo8M/NqLp5mGSLKLts+OI6AfHclfJDUaTSTl8rmMKp09etGgwSEzwrpFFvl2L7fkX4DWRSbPv74rP9hEKCPX/UWu5kqqKh4IQvqRPsXcQnXCQ7/bIQUmilhZk79hePqDrmF+mRVb4dPNJnK5tTukNe8X6kgFCBR+LN6s5ggqoTAUpAuPRY4PijgtxcG8VnHFg/tdTiPePtjPw5YqNx75QowdPP6Jiyjfcyao25r5a8WZrLsepmQqRPAJ7Pvf9GPk6khSKSxlaOVC3mulZhzxvnmMQ33jOSnKn7TtqylFsZz5I3a1dz5CZbkPQJCBeJ917OwXrSUOvMfDKzfdmpReRnOY5oOueE4+zSqDfY81TuCWPgWD+LfIvtj/sq5s32VTt0uydM+iUSEV/KTP+/BNppm5mOZ+9ALWZySFdGBKOcg07pkWwfi4h1U7slQ0YEg0f567xP4I+9fN7sP5SDDK0FSr9EQsJVOuiP4mirZaY9ttVjIr9kz0h8o+Ra6mc+K5iufZOFBQwgl1Q3+vuI8m7/sRxwdMPfTJ30PJdRoTro9fqU5B+KIY12mezQVY82BYQ7uGo1XHT5Y/3XYKbWaNZJBUByrmchLcJQFqHyMzr6/WDv1MNj4ZPPiqCN++NODwq5JbvD4qJ+IwYE4Y2yFzXPlSqiYfECylJ1GGzI4y9aiSyBGCWBXvms8s1AcXfqofeY7/DdAtxMm0x9ZNu+adXCL7Nih0VFu2FCAwUopX0n+YflR9XS/mM5xMCSv2glogQCoHw2uXrA+Hs10ccnXM5z8FZejt9Qe4QmnTyGWtCIhnmcu8Uc1tlAcYFiarvPwftXgqZPAF7Mtf96DuaDG9BrjajUkZUVVw+NtfEBw7UthU2/zcTElzPT/3NDO22RgL5v/cwSNCsLPkb9XOD0SyQgXB3OOWuJ+ZkDu6sHgmapvzdh5bHQ6fXxwTNX8g8HrB0ysXkw+VMnnC9k1kqTKYuHwqePT7hIcvp5YW6hFYqgcAB+1yEyETBHbGCNsWfO2dMC+m0udPRhfk6sDTAGZ2H3rhEw++DC6WAZOl3zF61UqiKbXKNueo/5Dt7Ox/a1wRzkE2tXrFmHtXy/2K0fHSjOD2GZvXwV2XobQw4sCX/ha3j8W1kC/Ux5l6dxf1/u1E2/zcT7r+ZlP2sofIno+33d3dekpV7TAhfqlNpNcp16FbrZlUcIDFVkYajHrj3lb9mvbP3/tc0/N8rb/n3TUe30+ivPzrg9Z8HLBPN+RO3nqX6bndQnvuAoT/JIBvlEfjGlZf/ef934SAHhmG/jv0Lpfx7/RawiK9mTqYqO1ODcjqAjj+qkP+301N9LoK3QPY+RWc4+1ejqP/uwIQFjcq/kt8R8UISwSv9qNrl2eqfUb8B4/wrWTlkXOl9djGru3onozZ450B76BMSrVKTviqG1wCEMNLEyFbz5DRodjBgYjv0mms4lDW+c3wyldIhI/xskvlGtRCldZwblZqC4gPr9kz92Yiu90egPi+2x/NXZrVPVWNnT4XodokX0+mQnn5+TwKViK0v1U5UttRRjZvts40slvFlmVmgf+UuGMc0ehFL6OVNoN+95nNcRpfSA84n3P4nStV9Bf1+2dJ2/I6le/SrGexlvj9JpXdNwxrlq+tQ69tQuHsdRmJsL29LD0DyHqERV0zsl0R4V/WB9SgePCtKptn98pSe/G8rubJZJ7/z7nB2ltOmIgcFKIwWEKbTrM/aj9OVP7hXHeJAf9B8bLCqg3zvKk1wljomh0/b6tWoXvcd8h2/n50SChvVZPNtR1WDRwaW/U0rf+XyX6n6/bGkkgzz2vdKPpezcV6spPWK/S5/aLaWU/o4cMu1v2X6imyVlHyguuPTZrTPaf+K2jUqsbNiInTbRMvqvMNfeK7lZj4L2j+35veepIjruq+h1rkK3Oo1rQukMTulWb2bLIS3Tf0fpkBHBG97YHYY1yV/X2VB6RREN8kFi/JvZxHdk85vrWvkb6F+JYJh/IRW07kvAnSl3T+vot5l47+Vs9P9Lor2AlUDBVCf2ZaoqOM4PZZG5ajajv497/klKv2NBoW6rVxT1cfHglI79Jm76upLrNMl0m4MObZ5T6vI0j3WvoGVnscte53DBAT277z3qx/BxQlhlz/9x6DCh4e8Y51WkArs3zaD961B4S82Wsf/zVnm7/65H0c3UTr9EIsILGaE/SgCdcKGypdr0jlREX/4bzSbXxbpfrkTpF8on1g0dFlBmuXkv12O9iR5kkJig03v+iXRm+/Q+V6JX/5IXuFD9lWFCg/fc8/n/sFX8qN8XOizlTq5PnWNPomYT+j+N+jhRPurTOCKrd07WaqfXbzMt5ediaCNcGP/U3YKq6FN8nEl8Ykpp2e3/RJb5L9aviVJ69S85xoOCbmWhc/X2KD2RT/SlaH9f/Dv0o6r+XE4rz4VOt9RsmYgGMVSYao6ETtEaoI9POE9J+vqchCsNW9rJz1+Jqq5+wxdKKaU3MJFfRA9r+KDw+93pKT0OpZQ+xTVc/cv/k2Up33dkIT+dvHRE1C28UawK13miEfr44PnCxx8V4eaC1Wxysm1tS1VV9ocdK2PB8/UNZFRqs8u2NzSrbfYnp3VJt8dQU2snPOjIanmtpT+8eQ/fzs8JhQoZ2KJfUdshOlERDWOafyU/SunWPvuD/MkTOSyqzo6xkRXgTlN4RLSXfptz7b+Wl/X0/gTKDTAi04bW+ns1VHQ2X4ih/jUs7w5G6LKX12b6bc5JfDkn/cZfmFCAi0ZjOLYvOhVpqu3rtu/V9WslWk2/xFPLQvu7BNALE9KypZ3I0gm3FZAL7BNZTV10RLScXq9PR/nZX5gaRoeGfZyfOCYFgvE8+7x5OHrDfHl3gEey0y+KI7UgoTgApiYtrI2UE84XiAu0tmQDjW5CpVtEE65YFalnsUbpD2/xVyNIOJ9R6c7B1RAGG3cUfH0zW9aAaMR4L59FNIyVj2gchWd3/0qj9B4LHr5XgBMKEm5wMMC1e9kKgt3b2o7sTZd/QDSio8Mft3Z/3Spv+//1yHpZmGRLs/Qe8x68lY/19P6ECK4s1T/Gs3vXCIBdQGXN9CYvGRENUeVxtdc0/Tbn3H81F+Pu/oQI6diyX/bG7mOtcfZBhSVlcxHEHaFf4sqzQH8LUknUyMjh/cAbu1ethtl9qiypm2sj7gq93iMd9Ze3JEBAerYYHF7aOJLnqUGtbd2A3cnKkwjck6mfXu9K/vachAjZYTom3d7dHWmMIza0MlT9rqymKzgkQhe2sD88DTi8pCefF+JmQoQK01BnVpeGDjGJhjjGRRYXjwYf8g6BCB1xzibxtl7RAL3HgkfvF4RjIUIxFMSiHdlj1leiEXYfqz74vNGa5tWI8DmnqdhL72mC3mPu/dcKcCIhAvLAeLRTz/LmQWm1uzOLu3vB556fPv+AaKL6LRt14NcExAtN0C+RiPhSbuZDQyHCPtY3AGZpZSLvTK3uyNqBWAPuyG2LOTIHRCOdU/VsrXSY8IdhQx6VHyr8ITjulg8pfGWacO9MI/RL/IUstH/ethDBDQAPNgt1GkzM/oWvRG3uyMYLWAkuhhp0py04DJ2uiYZEKZN5Rdp8Yq3yqTSqAePv+CCh8Sru2hsJiJcaodcnJL6YnvprcbQVIsCYni0motqOClMbJ1y6hjpcio0XtJSdDjLuXdvyRFOlaCWiHZTf2/Xz4pxiuXT8p9fYVKRvD1iQADSbhXTqJLC0erTjEJW05qn1w1s+tiyQ5ZC93pTFQ6LBGkCcM1mclXceWFM8kp58VgypBQrYx6WNcrzpS9qxNND2wTkPdp8rS0Pdm9Lccen5Metn2yUarQnOKTvhGp7FJ1xpij4+eP5MCsGJUAFFUZgLJlFow9GhpZOI08eVoZU173lnSjnExh/qM/VxffhG+p/ajNY8P+EQGTtEwzWBhE7TkQd/S0g81xS9R/l87K1gAVjtVSZhWmMPzgdcXDocruwwc0uNSV939i0thLWb+QttPJCdb7+19/i7LIx1n/f2LfVGtpiFI3E18Jw7Uvti0rLxTLn7IfE7RPM1goTOYi5T3zyqpui3Offea7mY9yWBXrgARC+XoVP1IZzwlCXDScomY9bNvuGQneuhur1hBp2DGrbbHbXRHrd6OnH5pNUJb5cIpGYsO0ceDTv/dULihabot/nmH+qchY0ItWYQ5zRrmgI5w8xvbz0h4UJD9Hp9Jtpfb0lnImFS9bilavTBKNLGe4mJZ09NU44zDfmH4mjrHnvQ3GJtHolWeVfN8qL4I2TkGjlgOx1j9Jnz2ifxwat3sy6N0HuspyhSur+WnaWdDZh4N1DcvfIXFezrrTrMnqGGaeD9dbB+uungQ+W4s//PuPJtmI0PIm2/7bLzZs+eLttvuuy8cbd3e7eRd9/k+W7v9m7vdpllevbs2TPK9ptbjrr1xpYTEb/OCzfur3M7go488vKlp89Vg7bycsG6uX0vt+ujtkPYbhjajAKrcWg5DvqaAH1OgD4mQe9TYE+9Txm9TYPepsD59TZlMPdzGii5Auvb/Pl76n0Knuw+X6nFOLAaA9Zj0GYU2o1AxyEQbBD2PYD67YUTzZk6EzyR8z/3QudK+zY2vZaD5iMms0YLBiv6G7o7Ojs6+2kfp3Widd6rfZmgN74vE0TVN76v4+Q3/5dPtW/j9Lmy9TZGDFdwkxmzCYtR6x6b1pDlwAnCJFrXMnyHRttOq16LkU8s3GBDrLfzks3WOdjJvo+Tbt26fbNu3bp1+2bc3dh3spP9GCPv9J3e9cjIVtx4ZovZpOWAda9tQ8gKSJ0N13Ur41Lp2GjXatNBm09+2vIZnzdcEIvPtbcRytzPUab8J/gEn+ATHORBnuu5rnce/8wyneiU0ELbRqCCdbcP8HUv4lrqVGvfqmLSs8c/3b/PMpn4a6x9DjPl/xrn8qz7ppOfjktoocquMXQBqE6UfN4v1DOnS/oP5dp0Muk9k5Ljn7t06dL3p/LSpUt/bvNRyeyk1SBzG3fGoTZ8BqjgiWzwfiGkRxGRlO9Yi3LtWlRXhYd4iP/nLPj8P/+HKbxq26Hi2jei/5xLIycQnePvt8o7/HM9qm7GF9yXQurv4xtDala7lbpUca7iVMexyWP0NQbr4RfC6dTLlL4Qp15+1BdyIRcyg6IOTfb/40sxt2z0CJIbNPp+pIBH5UcMeZhEvuQNNl4+jjfIJcBnwTeE1OxdLTpzpv9OfuzHfuy73/3uf46qd797DMOwflHXao1nStwgglsmokFcnLdXvhifkWoOy7zBuutHi4aaBtsK5P4hC3M+MSTplcLzSmqancfjkevm/HySWpHcj4QK37sawIrnR8tGqsjCdEJs1wa5CgJd1Gr5OEEQo81JEMS4XB3oKnidWge8ThT8PlYsRnR9lEykaoSuLFwnzDTMJNQ21OTJk4PN++TJk/8H1sjCVbMKwQvCnP9PZE1gjRO7HCuqVK5fvz5aJkqVoqJkm5WiqLGx9coY3twcEOvOAkshS6ZLJk2iS2S7lcCWwBfPt3379u1vmzWe9+327W8PHUqgK4wBMVh//WywDLh0tHS4NLQ01FS8c6loqaipuNOKFLwU3Nfzet6XqicmpqYUiulzb0pdgAzW3D/3bz+z/5cF/kom/Ew4RiZY0wz4/HI4HAaDU2kCZrDy+fm/z/8t7+/z/rYs9+8HfrTQgdzfanSRXATDWJPIjDlqmnx1G7cxdb76YT/sh02dL9Xyh/2wqfJViGrhnvsluSUb5XNJtwutm+pj6nBohzZ9rtwG63S5kvdtbGMb0+WoUNXSHadSx7+v278ttSEh8Xq7n/EzdujQYcZspZYdOmwwbIXQLY5rVN1MjUgIvJ41S82SpWfJUuwzZ2u+j+IojmLmLB2+XOgY7dWJhMjQs2VqNZ41U0cokzoceUZzZGj1nR2vI5VKHe5EjUajMSReqacxRLqOXCp1N5Nah0rTUYqlrnairGoUpUTpduprilosdTV131+kpNla6dARD8OEPvI4dNTDhErl+ZcyeNA8om1eiY7PJCtYLmXwJ9uBz/e+/xs5okyKdVq1mplWrcol1ZbiOKyRAp70k3TXL/bu03yaTxMcdxvCKizFcQbDhjxZpmPHjh3t/7yZzSZ4Kv4rJTN02OPlV6lSpYrN3zez2vqlONww/VzXsjh3U2bse8naS3GodP9xFK1U8pNqHpc6iJSvUs/jNAuYz7k6mFiqgEihkjWvMilloJ2fiv/2VyaTzBQ5RJlpYpNkVsUkbmVEmTNUqhUqxZIl1YgyCYPXYfGqnnO6lmXJnSbFqxPJxglz3i7WlUWat5u9SWbMCiEypEi58k2yhstUioRJU8mnaIZVzJ52CT9TxZzTrbk7+ZvkTDJK5uth8RtFlEIZJl2LypnCZ6mXlnSMZNowcxJRzn2Ucw9l3jRTTJI5W9nFBojuMjFxGwezAAQllvCZqgAVgpliivgwxEQtHMxCNCApslgRJgC7G2LEbxCSYll3TShoLp9120zUxJ9AUkwKi1d18hyhIHAWZoAdJGjgJveY5FIgi3MMRgnEiFyoJMbhFGUDlhwEFMAInWalnCYsGdZwyF+WAvJCA9QNNTiwlqxYlh1TEQDGDKtmZ4VMv+Zs3QAAhXcQMtlyj5GA3AeQYUzcwhny/H3MyFKAAiLnS0bYdJUdRIyg+XuoqIDhc4O7IA2Ey9R8wJxx3VREipyvFiVDKF4cNhI0csldJqaaJwyctkgIqZ9+BYO1GAzi1QuJEBIpV+2SUYxtRC+ThFt62lUZ3kYA5ngNQuQDlT6xxFU5O4hKAoaSi5zAsBmauMsCVzMzsoNIIoSIi5Igm3nhIRoqRRMixqkWJVDAyE+BtRQInLeXN2ScTxMASLVAiArynaIHWKCPppojBaiABWkWcX0OcYF+1ozFfBXplvFpp14g2QlmQToMMr9Jg/tMipwnt8QoRAedCZEiF6jiMGBDxg1sIMTn4cDMuGYaFAidamXZNgHAHLNc1GYscgojZCsVZNs1Q/y0vLxiVYoWLLn2kYEjYq7KdwrBNLasKRt8SJQieRP/PUaZlNxnxGsREmSYNyeSwNWCOPKTQS1CpPSrmGFecIB25ZLOoCgHMIqwgHw0jKCXJiqXDTQNhFzx52PJdwJDpWo2OXErN7L0MBFWH6L+iKH+qTNQRyRyqlkCwFgeQFGWEb1UErJk3iPI2H0Zwi0+AJhZd8w5flhf0ggATVUUkB00WW4q1C/NkW7JBLNS/HoeyKaJiCFwrg7eipFuCRMi9QDQPP0yBtBuni4mkp/ozfALn60VCJOm2zOMaxsmXWOUy/KM7hFylHL/PeRPLRvi1oqdsqSawyFTLLZaeQ4RS+1wWZq4+0jUIlmUBRi592G4DCXVPCYALeZq5wBw6vXlOdt4ECPjOha5JJd8WZAGGZViVwlSOe8xYlRNUM9FpU45QaM40AfbJZhNrltiO4MNsTSWdYAX253hfbFy3BoBABVcCpUZwAn6GB4MzAUGmBeXPFcbMzMKQmBJ4nPqDLjOEi+l4AYAsBvTzONAwn6xx8xy6gYdoP7LYJiv3WuhIcpo2vWfAqi0amB2EDEqxa6WgVzkaMDMvGEaiHygzRitd60cp/HROxPOFY6XZYO6gDxPFzcCQJJR2vWDAzDO28O6fG4AQbGqZJvnxnh1J0e4n/aGGMb5e2kXg+FWWjCKcUD8Oi6pqNLCwzSAcEcpUi1YPrYuQKKVKm9G42ea5xAC2GnMCmlIOY0BmOfvZTEr5T9ltPfnkuds50GMVi2TTZB7vdfzKUSHDKSaxZ1U9L2uW1QgUp7aEEvj0MlaF6h7yozuMcqEN4CraCNdVgmuAeBjX1oQ4yZkrq6+UH4z9ZQ5x2+W9xgy0CNCjlbgmR4aS+1d6wJy2gXMON46RgCNA0mUYvVPAWTbQSlnCABsKXalELlq5qdCFRTngiuUlPjvIX5ZsSpleUbDZJNU4jJVZKmUoEmIXJL7bVfzdDIzgO/VHgCSjBID2ftVAFiUAisw8pNhG8IZuFovFZhPu6sS2UDT0LWDGQB2GrdOiBw+D2dmIPcBCodXJoYk+R/9i3W3kTPbKQBzAwBBCRu5SDp9cADtejEyb5n+XPWrQJWLkoCkFPmpazKQ+xDV5ZCiFqvCdMBizrFnXpQY8pduK76IFddxZ1fsflvyrMC5+lYI8VlwkJnBueAAM3HVPV6WY8p1gHowc+6ba7IgZrkUlZLrGBlG11lsYCPSBlkAYwEK7HFnuzSakfcE+bvfpLSLmOsP1SJEqtaAq7rIIV2eJ0uVK2Yl186WfJIGKkV2/TUZqBSnRpg4nvaiFMTG7Z6T5+5gXE1NhJBf89w4vOsSztDJ6tTBeqAyYUoRs1UDlrMKm6mVE2+zFwMnuGuJhZg+eREG0BlM0UpkVY5HlAkhAaU51uHFVe+5sRTlwMUkFiJXYPEsIypFSEsWvEnCKVfLdwyDdARS99CMrJ6bCCSEeL0cI2vQRxA5xE9uZM21hxoRjgcLMjLvlcUZb63DyMwOIoZ0Kw2MzN1XE9mIeHIXULtdQ4bZWLXHipI7jvyNV8n60hoRQojJpUC9StZPfAaEU3qXr5J1E4R7vZ/4VTJjV3LCGrNKvkrm7QYSQoj4N14l6+aIgl5XfP1HmGKanPqpP+5CQ+za1+vTlbjnJE7CLrETRSV2BYjEziaxE1aJnSguSaIoioGSRNQfWbhnO/ynZc6sFEmcWqljiC9LqN6sjnFEC/Qxocq6jfx1C9JeqJpHLVEmXUK62J0KFa43UJcQk48TCPZOY9dIUXcQy3gLF+7szwTqClLEPFUBAm7eQfgsbdINAnf9wd0AIGRotvR6RV1ArHm2zSDw3jdR1+De86o1Xy/7UhB+42Y+wu1GyFL+7vhVy2zpRxmhFZs1Wf0Ez8rdfoKrN2mI/Xf2+27wvtXGWKlBCRRwGM/xn2qNqrtsBaBqg15aoVLjR28NXNAHz7SJ26HBSVXcs0JBj7rCIyqwmQ9e8RZ3ymiyg4oV29+UN5t34/NxncZZtvHqwAnGKBNPPdO6yXHq/+bHFaQCftaap4P5ot0OMqzj3w/s+dFPqgE8T+qDd2ec4J+seFK9GP800yauWLH90oWZkO14T+rBXGdI1h3zHIEP/gCpF4mR6wT/ZMWKFQ+qCZCwibf51EbgOKMWifm6mVZosjn5QIEX70O6486eqXg0CrXanCFeHecy1vEJ9PnQjO6rElFstLkcRATA/Lk3RzoZpAMFKjRyTlVrcSSfIPV+zVXwckGda+UgmjDes2GudgbM3cnEuj3w3sOmq8DfCaBSNVEiSzNOsDIRxbB4XaYHAHN2EMUoE6STQVqxJGAg9xGq3PnOuBbopT5EFOv+fmBz/l83CIheKgzXrhVwrYbFzM1jlAppVy2RdhmbatUGUAI28kOwR+2qjOo+t9ngzp6bkdFiMWkr8mqejPWQW3hPjeTY1aIX8Nyilkix3je4vJprATfViLQ83Qs9ZiMA75OqEITm59jCE8bjPcfyAHqt2aP2+1bgGn0SNotWwAHJZ9bA/HcCpVPHtk2dTxnAKa8a8GsMaxuhZsauyUVdXj35KT2BJ75YsdZ5xK/nEXPUckCzRzW8aK6H8wmoXqbaZoCNvYENAbhnr0/M+F5X0eO5eQra7+wa4H1onUng/RjrGH5iEHC8iVtYvS7kKTfE6Hq7Zbz+/VqMmw3wd53Bcs3aLKYkYxQe8npbAOcjB75RoDATVGIEPEBdr85VACQZIS/2Ep8Y7cNmqEaPjjxHsHPAmwRaJGzmAU9CbnNNjmabNnwzAMuRA+h+jgFEnruL4ybEi9opgJcjrzfJMJFjlonyLKYHw22KW/EGPoJMUs8TwLsqgA8tXmwvLkObBmCuQC7LzLXn6yZd6h1reSHrvuv6N+srVu+8iQZlfFYEgj6GofOb3ITX5QWhVXWTKUaFPABpvRsCcECGrbSoJadZJGz387kvVn5ZvYDjlB/GG6w31YiQK6wlbeV4gbUNU/kAamOnb1N+8Xjr0qqHBnOiFuF1iRcQo1x4fcXPwPbw/gE9AHTv/ATtM23iJ6m+6zNrtTnDigCCVjb8oc9tqFeB7e2+pch5qmvcGu4J3KZ89DsF+4XWbeTH5VX3BaVdNNt/BiBKgdxVombOVbWMz8UmnyRP2/CpzQJWfhM+D/apDTfyHOpurCZpCbzno5f+0DoOxb/mLtGquvwTmzyuFCZdfWDgM/8d+QHMZbw8jAwSEPDyf+rrAfDJ5a304hK/Z4NLM63aHTgUcdXawJv1cimUVT+5z3G2Q4s28rV/vjcrHv2abK/OsGs/AO97c/KNfIQnuZGn3vkq/r3XFQDovqpJX+nkDPfJQgICTFs5WwCxKoT81Ftx7Hnr5HNz+RDZ557LM1bjurNa0oqv59bFZ9NEwIx1fC6rGln8Pb2AFNP0UjvnOUbAky1J/AkRd+2HVtV9nhKLE+ILvJ5G5Dvez9+RzuCJWdbbWT7QXgCuXb7Eh+eSmuICFLrQXfu/nn8f6Av8/r0TQoipzZ7ZTrn+emoDQJ1Ol/cXvbLtIg/pcTvVPTQAL0gi53E/lyhWb8LykZaUV/QEUE3+qbvnqF1TygaaCtQ7j5e8YD9trsTi/sSfEHEFbwFDlU4/NVKujJQjr+ICnuRvkNfeHPB7GOk2m6aew03TLJHdo1X1rtWD0q+Ykv8OgE8tEp/6MiG/k2G6kfMx1TopAG9WJlU82+10pwyylhKVXppcTb7Y1YENVRb/UNNuTdfaPdueDZX9GC2PaL1Pe8ldXoBPGa878AbMf0UkPvVFUrcCw/Qm36T4TG8WwMPJAct5titfhA0AtG5DKnAZ2jQBU6EcIAogB9q0W1Pf9y1krQOI9B0b7KAt8bk0AFWryWeQeoH8yY/QAWhVXay30AA5s8ADODR4Lib+moUG6cJD5P0tKXuwNX/q8k8sxIDAVzuAwFpf9wGiFcu3rhKcug/xuQkj0O52u95Ktw/+EU4d7OWv+AlyEhDjlDsTsrkmjQOJeGlBwDnWFe+5UqVbDxCTjFCWZBO0yVbkTawBVKgs1T2SF79YBwBL16pVm5c1XIqUeM9Vtv2KDwpC/k8vdpVyB4QCNGho2+XPAsBVr9C23Ozfrdm/WXWAVnfQZQW5fv1PHYTsIFql3N2WBAzguuf4uRMmQ388bKzRD15omOGgxC7HagS23aZt/bZtU05h4HOLq5w6Fh5hP3jvGwM+SogfVr2rALD61kP+0oY7A4Czeg71yx3Vt/nUHOZf2SnlFGF83Hv+wV2OMOgqarU9qo8NoNscP60QP/QLApqcQZdN98JZ+f/gj4DlfLrcrRH4nZ3b1m8bMlkzmsoreHLUmeO7dan/lOUMyl27Gdh0uXi1AkDjmqt8wqM6qscVNOPZ+rb0Q1D79Gv4aNZgmMtXPMTzucU1gIbrWO49V/jx7YvBAKjt63sVAHIdmr7P4MXgn1b0PTS0auz7wXsBDVdv+YQv52abA2sczXL5KQC/37fiPwVO2bdicwBB2UH0DHbQi2H2rniDD3aLn5kDSUaJzx/qBcD8uX1b7hm9Mm/jZ9DSGzDfme9yLwbAf/d99AbY6aP7dofnDnxv0RMwPrd0K/he3+h/bwAYP7HhGsH51VreYjuWHbR8SwAWb3m2ANwAsHr6ZfMJ9Ysfk6Bp2TUj5cp664AGnu3zPYML4tKRX88hakQ20DzEdZh1rKfi//0FEAA=" vertex="1" parent="1">
          <mxGeometry x="-810" y="353" width="117.01" height="119" as="geometry" />
        </mxCell>
        <mxCell id="6TmgzU4dqJjTE7Q41w9K-23" style="edgeStyle=orthogonalEdgeStyle;rounded=0;orthogonalLoop=1;jettySize=auto;html=1;entryX=0;entryY=0.5;entryDx=0;entryDy=0;" edge="1" parent="1" source="6TmgzU4dqJjTE7Q41w9K-14" target="6TmgzU4dqJjTE7Q41w9K-19">
          <mxGeometry relative="1" as="geometry" />
        </mxCell>
        <mxCell id="6TmgzU4dqJjTE7Q41w9K-24" style="edgeStyle=orthogonalEdgeStyle;rounded=0;orthogonalLoop=1;jettySize=auto;html=1;entryX=0;entryY=0.5;entryDx=0;entryDy=0;" edge="1" parent="1" source="6TmgzU4dqJjTE7Q41w9K-14" target="6TmgzU4dqJjTE7Q41w9K-20">
          <mxGeometry relative="1" as="geometry" />
        </mxCell>
        <mxCell id="6TmgzU4dqJjTE7Q41w9K-25" style="edgeStyle=orthogonalEdgeStyle;rounded=0;orthogonalLoop=1;jettySize=auto;html=1;entryX=0;entryY=0.5;entryDx=0;entryDy=0;" edge="1" parent="1" source="6TmgzU4dqJjTE7Q41w9K-14" target="6TmgzU4dqJjTE7Q41w9K-21">
          <mxGeometry relative="1" as="geometry" />
        </mxCell>
        <mxCell id="6TmgzU4dqJjTE7Q41w9K-26" style="edgeStyle=orthogonalEdgeStyle;rounded=0;orthogonalLoop=1;jettySize=auto;html=1;entryX=0;entryY=0.5;entryDx=0;entryDy=0;" edge="1" parent="1" source="6TmgzU4dqJjTE7Q41w9K-14" target="6TmgzU4dqJjTE7Q41w9K-22">
          <mxGeometry relative="1" as="geometry" />
        </mxCell>
        <mxCell id="6TmgzU4dqJjTE7Q41w9K-14" value="Document loader &amp;amp; text splitter" style="rounded=0;whiteSpace=wrap;html=1;fontSize=18;" vertex="1" parent="1">
          <mxGeometry x="-410" y="367.5" width="150" height="90" as="geometry" />
        </mxCell>
        <mxCell id="6TmgzU4dqJjTE7Q41w9K-16" value="" style="group" vertex="1" connectable="0" parent="1">
          <mxGeometry x="-600" y="337.5" width="140" height="150" as="geometry" />
        </mxCell>
        <mxCell id="6TmgzU4dqJjTE7Q41w9K-2" value="" style="sketch=0;aspect=fixed;pointerEvents=1;shadow=0;dashed=0;html=1;strokeColor=none;labelPosition=center;verticalLabelPosition=bottom;verticalAlign=top;align=center;fillColor=#00188D;shape=mxgraph.azure.code_file" vertex="1" parent="6TmgzU4dqJjTE7Q41w9K-16">
          <mxGeometry x="5.5" y="12.5" width="47" height="50" as="geometry" />
        </mxCell>
        <mxCell id="6TmgzU4dqJjTE7Q41w9K-3" value="" style="sketch=0;aspect=fixed;pointerEvents=1;shadow=0;dashed=0;html=1;strokeColor=none;labelPosition=center;verticalLabelPosition=bottom;verticalAlign=top;align=center;fillColor=#00188D;shape=mxgraph.mscae.enterprise.document" vertex="1" parent="6TmgzU4dqJjTE7Q41w9K-16">
          <mxGeometry x="75.5" y="12.5" width="40" height="50" as="geometry" />
        </mxCell>
        <mxCell id="6TmgzU4dqJjTE7Q41w9K-5" value="" style="shape=image;html=1;verticalAlign=top;verticalLabelPosition=bottom;labelBackgroundColor=#ffffff;imageAspect=0;aspect=fixed;image=https://cdn4.iconfinder.com/data/icons/file-extension-names-vol-8/512/24-128.png" vertex="1" parent="6TmgzU4dqJjTE7Q41w9K-16">
          <mxGeometry y="82.5" width="58" height="58" as="geometry" />
        </mxCell>
        <mxCell id="6TmgzU4dqJjTE7Q41w9K-6" value="" style="shape=image;html=1;verticalAlign=top;verticalLabelPosition=bottom;labelBackgroundColor=#ffffff;imageAspect=0;aspect=fixed;image=https://cdn1.iconfinder.com/data/icons/bootstrap-vol-3/16/filetype-html-128.png" vertex="1" parent="6TmgzU4dqJjTE7Q41w9K-16">
          <mxGeometry x="71.5" y="82.5" width="58" height="58" as="geometry" />
        </mxCell>
        <mxCell id="6TmgzU4dqJjTE7Q41w9K-15" value="" style="rounded=1;whiteSpace=wrap;html=1;fillColor=none;strokeWidth=3;strokeColor=#28a3d7;" vertex="1" parent="6TmgzU4dqJjTE7Q41w9K-16">
          <mxGeometry width="140" height="150" as="geometry" />
        </mxCell>
        <mxCell id="6TmgzU4dqJjTE7Q41w9K-18" value="" style="edgeStyle=orthogonalEdgeStyle;rounded=0;orthogonalLoop=1;jettySize=auto;html=1;" edge="1" parent="1" source="6TmgzU4dqJjTE7Q41w9K-15" target="6TmgzU4dqJjTE7Q41w9K-14">
          <mxGeometry relative="1" as="geometry" />
        </mxCell>
        <mxCell id="6TmgzU4dqJjTE7Q41w9K-19" value="text chunk" style="rounded=0;whiteSpace=wrap;html=1;fontSize=18;" vertex="1" parent="1">
          <mxGeometry x="-190" y="280" width="150" height="43" as="geometry" />
        </mxCell>
        <mxCell id="6TmgzU4dqJjTE7Q41w9K-20" value="text chunk" style="rounded=0;whiteSpace=wrap;html=1;fontSize=18;" vertex="1" parent="1">
          <mxGeometry x="-190" y="353" width="150" height="43" as="geometry" />
        </mxCell>
        <mxCell id="6TmgzU4dqJjTE7Q41w9K-21" value="text chunk" style="rounded=0;whiteSpace=wrap;html=1;fontSize=18;" vertex="1" parent="1">
          <mxGeometry x="-190" y="430" width="150" height="43" as="geometry" />
        </mxCell>
        <mxCell id="6TmgzU4dqJjTE7Q41w9K-22" value="text chunk" style="rounded=0;whiteSpace=wrap;html=1;fontSize=18;" vertex="1" parent="1">
          <mxGeometry x="-190" y="505.5" width="150" height="43" as="geometry" />
        </mxCell>
        <mxCell id="6TmgzU4dqJjTE7Q41w9K-40" style="edgeStyle=orthogonalEdgeStyle;rounded=0;orthogonalLoop=1;jettySize=auto;html=1;entryX=0;entryY=0.5;entryDx=0;entryDy=0;exitX=1.006;exitY=0.079;exitDx=0;exitDy=0;exitPerimeter=0;" edge="1" parent="1" source="6TmgzU4dqJjTE7Q41w9K-27">
          <mxGeometry relative="1" as="geometry">
            <mxPoint x="270" y="301.5" as="targetPoint" />
          </mxGeometry>
        </mxCell>
        <mxCell id="6TmgzU4dqJjTE7Q41w9K-45" value="embedding" style="edgeLabel;html=1;align=center;verticalAlign=middle;resizable=0;points=[];" vertex="1" connectable="0" parent="6TmgzU4dqJjTE7Q41w9K-40">
          <mxGeometry x="-0.1949" y="1" relative="1" as="geometry">
            <mxPoint x="4" y="-9" as="offset" />
          </mxGeometry>
        </mxCell>
        <mxCell id="6TmgzU4dqJjTE7Q41w9K-41" style="edgeStyle=orthogonalEdgeStyle;rounded=0;orthogonalLoop=1;jettySize=auto;html=1;entryX=0;entryY=0.5;entryDx=0;entryDy=0;exitX=1.003;exitY=0.349;exitDx=0;exitDy=0;exitPerimeter=0;" edge="1" parent="1" source="6TmgzU4dqJjTE7Q41w9K-27">
          <mxGeometry relative="1" as="geometry">
            <mxPoint x="270" y="374.5" as="targetPoint" />
          </mxGeometry>
        </mxCell>
        <mxCell id="6TmgzU4dqJjTE7Q41w9K-42" style="edgeStyle=orthogonalEdgeStyle;rounded=0;orthogonalLoop=1;jettySize=auto;html=1;entryX=0;entryY=0.5;entryDx=0;entryDy=0;exitX=0.987;exitY=0.635;exitDx=0;exitDy=0;exitPerimeter=0;" edge="1" parent="1" source="6TmgzU4dqJjTE7Q41w9K-27">
          <mxGeometry relative="1" as="geometry">
            <mxPoint x="270" y="451.5" as="targetPoint" />
          </mxGeometry>
        </mxCell>
        <mxCell id="6TmgzU4dqJjTE7Q41w9K-43" style="edgeStyle=orthogonalEdgeStyle;rounded=0;orthogonalLoop=1;jettySize=auto;html=1;entryX=0;entryY=0.5;entryDx=0;entryDy=0;exitX=0.994;exitY=0.915;exitDx=0;exitDy=0;exitPerimeter=0;" edge="1" parent="1" source="6TmgzU4dqJjTE7Q41w9K-27">
          <mxGeometry relative="1" as="geometry">
            <mxPoint x="270" y="527" as="targetPoint" />
          </mxGeometry>
        </mxCell>
        <mxCell id="6TmgzU4dqJjTE7Q41w9K-27" value="Embedding Generation M&lt;span style=&quot;background-color: initial;&quot;&gt;odel&lt;/span&gt;" style="rounded=0;whiteSpace=wrap;html=1;fontSize=18;" vertex="1" parent="1">
          <mxGeometry x="40" y="280" width="150" height="270" as="geometry" />
        </mxCell>
        <mxCell id="6TmgzU4dqJjTE7Q41w9K-32" style="edgeStyle=orthogonalEdgeStyle;rounded=0;orthogonalLoop=1;jettySize=auto;html=1;entryX=0.007;entryY=0.081;entryDx=0;entryDy=0;entryPerimeter=0;" edge="1" parent="1" source="6TmgzU4dqJjTE7Q41w9K-19" target="6TmgzU4dqJjTE7Q41w9K-27">
          <mxGeometry relative="1" as="geometry" />
        </mxCell>
        <mxCell id="6TmgzU4dqJjTE7Q41w9K-33" style="edgeStyle=orthogonalEdgeStyle;rounded=0;orthogonalLoop=1;jettySize=auto;html=1;entryX=-0.013;entryY=0.352;entryDx=0;entryDy=0;entryPerimeter=0;" edge="1" parent="1" source="6TmgzU4dqJjTE7Q41w9K-20" target="6TmgzU4dqJjTE7Q41w9K-27">
          <mxGeometry relative="1" as="geometry" />
        </mxCell>
        <mxCell id="6TmgzU4dqJjTE7Q41w9K-34" style="edgeStyle=orthogonalEdgeStyle;rounded=0;orthogonalLoop=1;jettySize=auto;html=1;entryX=-0.007;entryY=0.637;entryDx=0;entryDy=0;entryPerimeter=0;" edge="1" parent="1" source="6TmgzU4dqJjTE7Q41w9K-21" target="6TmgzU4dqJjTE7Q41w9K-27">
          <mxGeometry relative="1" as="geometry" />
        </mxCell>
        <mxCell id="6TmgzU4dqJjTE7Q41w9K-35" style="edgeStyle=orthogonalEdgeStyle;rounded=0;orthogonalLoop=1;jettySize=auto;html=1;entryX=-0.007;entryY=0.915;entryDx=0;entryDy=0;entryPerimeter=0;" edge="1" parent="1" source="6TmgzU4dqJjTE7Q41w9K-22" target="6TmgzU4dqJjTE7Q41w9K-27">
          <mxGeometry relative="1" as="geometry" />
        </mxCell>
        <mxCell id="6TmgzU4dqJjTE7Q41w9K-61" style="edgeStyle=orthogonalEdgeStyle;rounded=0;orthogonalLoop=1;jettySize=auto;html=1;entryX=0;entryY=0.5;entryDx=0;entryDy=0;exitX=1;exitY=0;exitDx=0;exitDy=195;exitPerimeter=0;" edge="1" parent="1" source="6TmgzU4dqJjTE7Q41w9K-44" target="6TmgzU4dqJjTE7Q41w9K-67">
          <mxGeometry relative="1" as="geometry" />
        </mxCell>
        <mxCell id="6TmgzU4dqJjTE7Q41w9K-62" value="Top-K matches" style="edgeLabel;html=1;align=center;verticalAlign=middle;resizable=0;points=[];" vertex="1" connectable="0" parent="6TmgzU4dqJjTE7Q41w9K-61">
          <mxGeometry x="-0.4302" y="3" relative="1" as="geometry">
            <mxPoint x="25" y="-6" as="offset" />
          </mxGeometry>
        </mxCell>
        <mxCell id="6TmgzU4dqJjTE7Q41w9K-44" value="&lt;font style=&quot;font-size: 18px;&quot;&gt;Vector Database&lt;/font&gt;" style="shape=cylinder3;whiteSpace=wrap;html=1;boundedLbl=1;backgroundOutline=1;size=15;" vertex="1" parent="1">
          <mxGeometry x="270" y="277.5" width="180.38" height="282.5" as="geometry" />
        </mxCell>
        <mxCell id="6TmgzU4dqJjTE7Q41w9K-46" value="embedding" style="edgeLabel;html=1;align=center;verticalAlign=middle;resizable=0;points=[];" vertex="1" connectable="0" parent="1">
          <mxGeometry x="233.9991093991308" y="363.9953669654412" as="geometry" />
        </mxCell>
        <mxCell id="6TmgzU4dqJjTE7Q41w9K-47" value="embedding" style="edgeLabel;html=1;align=center;verticalAlign=middle;resizable=0;points=[];" vertex="1" connectable="0" parent="1">
          <mxGeometry x="233.9991093991308" y="439.9953669654412" as="geometry" />
        </mxCell>
        <mxCell id="6TmgzU4dqJjTE7Q41w9K-48" value="embedding" style="edgeLabel;html=1;align=center;verticalAlign=middle;resizable=0;points=[];" vertex="1" connectable="0" parent="1">
          <mxGeometry x="233.9991093991308" y="514.9953669654412" as="geometry" />
        </mxCell>
        <mxCell id="6TmgzU4dqJjTE7Q41w9K-53" style="edgeStyle=orthogonalEdgeStyle;rounded=1;orthogonalLoop=1;jettySize=auto;html=1;entryX=1;entryY=0.5;entryDx=0;entryDy=0;strokeColor=#FF0000;curved=0;" edge="1" parent="1" source="6TmgzU4dqJjTE7Q41w9K-51" target="6TmgzU4dqJjTE7Q41w9K-52">
          <mxGeometry relative="1" as="geometry" />
        </mxCell>
        <mxCell id="6TmgzU4dqJjTE7Q41w9K-51" value="" style="sketch=0;outlineConnect=0;fontColor=#232F3E;gradientColor=none;fillColor=#232F3D;strokeColor=none;dashed=0;verticalLabelPosition=bottom;verticalAlign=top;align=center;html=1;fontSize=12;fontStyle=0;aspect=fixed;pointerEvents=1;shape=mxgraph.aws4.user;" vertex="1" parent="1">
          <mxGeometry x="1320" y="289.5" width="78" height="78" as="geometry" />
        </mxCell>
        <mxCell id="6TmgzU4dqJjTE7Q41w9K-55" style="edgeStyle=orthogonalEdgeStyle;rounded=1;orthogonalLoop=1;jettySize=auto;html=1;entryX=1;entryY=0.5;entryDx=0;entryDy=0;curved=0;" edge="1" parent="1" source="6TmgzU4dqJjTE7Q41w9K-52" target="6TmgzU4dqJjTE7Q41w9K-54">
          <mxGeometry relative="1" as="geometry">
            <Array as="points">
              <mxPoint x="1161" y="185" />
            </Array>
          </mxGeometry>
        </mxCell>
        <mxCell id="6TmgzU4dqJjTE7Q41w9K-63" style="edgeStyle=orthogonalEdgeStyle;rounded=1;orthogonalLoop=1;jettySize=auto;html=1;entryX=0.5;entryY=0;entryDx=0;entryDy=0;fillColor=#f8cecc;strokeColor=#FF0000;curved=0;" edge="1" parent="1" source="6TmgzU4dqJjTE7Q41w9K-52" target="6TmgzU4dqJjTE7Q41w9K-67">
          <mxGeometry relative="1" as="geometry" />
        </mxCell>
        <mxCell id="6TmgzU4dqJjTE7Q41w9K-52" value="Question" style="ellipse;whiteSpace=wrap;html=1;aspect=fixed;fontSize=18;" vertex="1" parent="1">
          <mxGeometry x="1090" y="256" width="142.5" height="142.5" as="geometry" />
        </mxCell>
        <mxCell id="6TmgzU4dqJjTE7Q41w9K-57" style="edgeStyle=orthogonalEdgeStyle;rounded=0;orthogonalLoop=1;jettySize=auto;html=1;entryX=1;entryY=0.5;entryDx=0;entryDy=0;" edge="1" parent="1" source="6TmgzU4dqJjTE7Q41w9K-54" target="6TmgzU4dqJjTE7Q41w9K-56">
          <mxGeometry relative="1" as="geometry" />
        </mxCell>
        <mxCell id="6TmgzU4dqJjTE7Q41w9K-54" value="Embedding Generation M&lt;span style=&quot;background-color: initial;&quot;&gt;odel&lt;/span&gt;" style="rounded=0;whiteSpace=wrap;html=1;fontSize=18;" vertex="1" parent="1">
          <mxGeometry x="860" y="110" width="150" height="150" as="geometry" />
        </mxCell>
        <mxCell id="6TmgzU4dqJjTE7Q41w9K-56" value="&lt;font style=&quot;font-size: 18px;&quot;&gt;Query Embedding&lt;/font&gt;" style="rounded=1;whiteSpace=wrap;html=1;" vertex="1" parent="1">
          <mxGeometry x="600" y="145" width="160" height="80" as="geometry" />
        </mxCell>
        <mxCell id="6TmgzU4dqJjTE7Q41w9K-58" style="edgeStyle=orthogonalEdgeStyle;rounded=1;orthogonalLoop=1;jettySize=auto;html=1;entryX=1;entryY=0;entryDx=0;entryDy=75;entryPerimeter=0;curved=0;" edge="1" parent="1" source="6TmgzU4dqJjTE7Q41w9K-56" target="6TmgzU4dqJjTE7Q41w9K-44">
          <mxGeometry relative="1" as="geometry">
            <Array as="points">
              <mxPoint x="570" y="185" />
              <mxPoint x="570" y="353" />
            </Array>
          </mxGeometry>
        </mxCell>
        <mxCell id="6TmgzU4dqJjTE7Q41w9K-59" value="Similariity search" style="edgeLabel;html=1;align=center;verticalAlign=middle;resizable=0;points=[];" vertex="1" connectable="0" parent="6TmgzU4dqJjTE7Q41w9K-58">
          <mxGeometry x="0.4877" y="-3" relative="1" as="geometry">
            <mxPoint x="-12" y="-12" as="offset" />
          </mxGeometry>
        </mxCell>
        <mxCell id="6TmgzU4dqJjTE7Q41w9K-65" value="" style="edgeStyle=orthogonalEdgeStyle;rounded=0;orthogonalLoop=1;jettySize=auto;html=1;strokeColor=#FF0000;" edge="1" parent="1" source="6TmgzU4dqJjTE7Q41w9K-60" target="6TmgzU4dqJjTE7Q41w9K-64">
          <mxGeometry relative="1" as="geometry" />
        </mxCell>
        <mxCell id="6TmgzU4dqJjTE7Q41w9K-60" value="LLM" style="rounded=0;whiteSpace=wrap;html=1;fontSize=18;" vertex="1" parent="1">
          <mxGeometry x="860" y="398.5" width="150" height="150" as="geometry" />
        </mxCell>
        <mxCell id="6TmgzU4dqJjTE7Q41w9K-66" style="edgeStyle=orthogonalEdgeStyle;rounded=1;orthogonalLoop=1;jettySize=auto;html=1;strokeColor=#FF0000;curved=0;" edge="1" parent="1" source="6TmgzU4dqJjTE7Q41w9K-64" target="6TmgzU4dqJjTE7Q41w9K-51">
          <mxGeometry relative="1" as="geometry" />
        </mxCell>
        <mxCell id="6TmgzU4dqJjTE7Q41w9K-64" value="&lt;font style=&quot;font-size: 18px;&quot;&gt;Answer&lt;/font&gt;" style="rounded=1;whiteSpace=wrap;html=1;" vertex="1" parent="1">
          <mxGeometry x="1081.25" y="433.5" width="160" height="80" as="geometry" />
        </mxCell>
        <mxCell id="6TmgzU4dqJjTE7Q41w9K-68" value="" style="edgeStyle=orthogonalEdgeStyle;rounded=0;orthogonalLoop=1;jettySize=auto;html=1;strokeColor=#FF0000;" edge="1" parent="1" source="6TmgzU4dqJjTE7Q41w9K-67" target="6TmgzU4dqJjTE7Q41w9K-60">
          <mxGeometry relative="1" as="geometry" />
        </mxCell>
        <mxCell id="6TmgzU4dqJjTE7Q41w9K-67" value="&lt;font style=&quot;font-size: 18px;&quot;&gt;Prompt&lt;/font&gt;" style="rounded=1;whiteSpace=wrap;html=1;shadow=0;textShadow=0;glass=0;gradientColor=#83b1ec;fillColor=default;gradientDirection=east;" vertex="1" parent="1">
          <mxGeometry x="600" y="433.5" width="160" height="80" as="geometry" />
        </mxCell>
      </root>
    </mxGraphModel>
  </diagram>
</mxfile>
